<svg width="70" height="96" viewBox="0 0 70 96" fill="none" xmlns="http://www.w3.org/2000/svg">
<path d="M34.3184 0.732499C33.921 0.935427 33.4137 1.47657 33.1685 1.95852C32.7204 2.84634 32.4498 3.65805 32.4414 4.14846C32.4329 4.66424 32.4414 4.68115 33.2953 6.07628C33.7097 6.76116 33.7266 6.81189 33.7266 7.39531C33.7266 7.72507 33.6674 8.20703 33.5913 8.46069C33.27 9.55988 32.1877 11.2087 31.0039 12.4093C30.0147 13.4155 29.4651 13.7537 27.9262 14.2949C27.2413 14.5316 26.9116 14.6754 24.933 15.5547C23.9353 16.0029 23.4195 16.1297 22.3964 16.1973C20.9252 16.2988 18.6507 15.9183 17.543 15.3856C16.8243 15.0474 16.2578 14.5908 16.0633 14.2188C15.9788 14.0497 15.8435 13.6015 15.7589 13.2295C15.3869 11.5384 15.3024 11.4031 14.1524 10.8366C12.5036 10.0165 11.4975 9.94037 10.7703 10.5745C10.4659 10.8451 10.2207 11.4539 10.2207 11.9612C10.2207 12.6715 10.8379 14.278 11.3283 14.836C11.6919 15.2503 11.9287 15.3518 12.9856 15.5885C13.4845 15.69 14.0171 15.8422 14.1524 15.9183C14.7105 16.2058 15.1502 16.7892 15.5391 17.7531C15.9788 18.8608 16.1564 19.8331 16.1986 21.4312C16.2494 23.1223 16.1648 23.638 15.6321 24.9063C15.4461 25.3629 15.2009 25.9548 15.091 26.2085C14.9811 26.4621 14.7359 27.0709 14.5329 27.5613C13.6113 29.8443 13.1124 30.5291 11.303 31.975C9.89094 33.1165 8.16605 33.8436 7.23596 33.6999C6.83856 33.6323 6.21286 33.3194 5.49416 32.8375C4.68244 32.2794 4.42878 32.2287 3.64244 32.457C2.22194 32.8713 1.08046 33.6069 0.784527 34.3002C0.513956 34.9175 0.72534 35.6615 1.32567 36.2027C1.94291 36.7607 3.60861 37.4541 4.31886 37.4541C4.70781 37.4541 4.75854 37.4287 5.8831 36.7185C6.85547 36.1012 7.28669 35.9998 8.19141 36.1773C9.29906 36.3972 10.8971 37.3442 12.1823 38.5448C13.2308 39.5341 13.6874 40.1767 14.2032 41.4281C14.4484 42.0115 14.9472 43.2037 15.3108 44.0831C15.6829 44.9709 16.0464 45.9602 16.1225 46.2815C16.2832 47.0171 16.2916 48.8773 16.1394 49.8412C15.835 51.8028 15.0572 53.4178 14.2032 53.849C14.0341 53.9336 13.476 54.1027 12.9602 54.221C11.8188 54.4747 11.5651 54.6015 11.2522 55.0666C10.9563 55.4978 10.4321 56.7154 10.3137 57.2396C10.0431 58.4064 10.4744 59.252 11.4805 59.5225C11.9963 59.6578 12.6474 59.5648 13.5267 59.2266C15.2516 58.5671 15.3446 58.4487 15.7589 56.5716C15.9111 55.8614 16.1141 55.4217 16.41 55.1511C17.3147 54.3056 19.4539 53.6461 21.5931 53.5446C22.4894 53.5023 22.6331 53.5108 22.76 53.6376C23.0052 53.8913 22.9545 53.9758 22.2696 54.4071C21.6692 54.7875 20.7138 55.6754 20.6123 55.9628C20.5024 56.2503 20.7222 56.5632 21.0266 56.5632C21.2042 56.5632 21.4325 56.4025 21.9483 55.9036C22.7092 55.1765 23.318 54.7791 24.1382 54.4831C24.5863 54.314 24.8484 54.2802 25.5756 54.2802C26.8101 54.2802 27.6556 54.517 30.3106 55.5823C32.8641 56.6054 33.735 56.8422 34.9526 56.8337C36.1617 56.8337 37.4385 56.4955 39.6453 55.5908C41.0996 54.9905 41.3871 54.8806 42.3087 54.5931C43.0613 54.3648 43.2727 54.331 44.2535 54.331C45.1244 54.3225 45.4457 54.3563 45.8177 54.4831C46.528 54.7284 47.3735 55.2695 48.1007 55.9459C48.8109 56.6054 49.0561 56.6985 49.3267 56.3941C49.4535 56.2588 49.462 56.1911 49.3774 55.9882C49.2421 55.6584 48.5995 55.0412 47.8385 54.5001C47.1959 54.0435 47.0776 53.8659 47.272 53.6292C47.365 53.5108 47.5257 53.5023 48.3966 53.5531C50.5527 53.663 52.4129 54.2041 53.4022 55.0074C53.8503 55.371 54.1209 55.9459 54.3492 57.0198C54.6028 58.2373 54.7381 58.4064 55.9049 58.9645C56.4207 59.2181 57.021 59.4633 57.2324 59.5141C58.0357 59.7001 58.7882 59.5817 59.2025 59.2012C59.8874 58.584 59.8282 57.1973 59.0757 55.6754C58.6191 54.7622 58.2386 54.4831 57.1056 54.2464C55.998 54.0097 55.6766 53.8744 55.2962 53.4939C54.6789 52.8851 54.2392 51.8451 53.8841 50.1371C53.7742 49.6129 53.7319 49.0379 53.7319 48.0233C53.7319 46.4675 53.7742 46.2561 54.3999 44.768C54.7296 43.9816 55.4145 42.3159 55.9472 41.0053C56.5645 39.5003 58.8728 37.3188 60.6146 36.6001C60.8682 36.4986 61.1219 36.3802 61.1642 36.3549C61.3417 36.2281 62.4156 36.0843 62.7791 36.135C63.2019 36.1858 63.6585 36.4056 64.3603 36.8791C65.3411 37.5471 65.5863 37.5725 66.7278 37.192C67.6917 36.8622 67.9961 36.71 68.5372 36.2788C69.2306 35.7376 69.4927 34.9598 69.2052 34.3002C68.9177 33.6407 67.7086 32.8544 66.3304 32.4485C65.5356 32.2202 65.358 32.2625 64.2081 32.9981C63.7431 33.294 63.2188 33.59 63.0328 33.6492C61.8237 34.0466 59.3632 32.829 57.3931 30.8674C56.6236 30.0979 56.1755 29.413 55.795 28.4491C55.6682 28.1194 55.2201 27.0371 54.8057 26.0394C53.8334 23.7141 53.7319 23.3167 53.7319 21.6849C53.7235 20.4335 53.7488 20.2305 54.1209 18.7339C54.4591 17.3473 55.1778 16.2142 55.9219 15.8845C56.1079 15.7999 56.6575 15.6562 57.1394 15.5547C58.2978 15.318 58.6022 15.0981 59.0757 14.1596C59.5238 13.2718 59.7098 12.6123 59.7183 11.9105C59.7268 11.3609 59.6929 11.2256 59.5069 10.9381C58.8728 9.98265 57.5453 9.96574 55.6682 10.8789C54.848 11.2763 54.5859 11.5892 54.4083 12.4009C54.0786 13.9144 54.0109 14.1004 53.6727 14.4894C52.7596 15.5209 50.5612 16.1804 48.0161 16.1804C46.6548 16.1804 46.1897 16.0959 45.0145 15.597C44.6424 15.4363 43.7292 15.0643 42.9852 14.7599C40.9728 13.9313 40.178 13.5085 39.4508 12.8913C37.7851 11.4708 36.3224 9.09484 36.1955 7.62361C36.1448 6.99791 36.2547 6.71043 36.8973 5.70424C37.6414 4.55432 37.6583 4.51204 37.5399 3.92862C37.3877 3.20992 36.8889 2.02617 36.5253 1.55267C35.8827 0.707133 35.0118 0.377374 34.3184 0.732499ZM35.5867 1.91625C35.7389 2.08535 36.0011 2.51658 36.1617 2.8717C36.3985 3.37902 36.4576 3.61577 36.4661 4.05545C36.4746 4.57123 36.4492 4.63887 36.1279 5.12082C35.6459 5.82262 35.4515 6.22002 35.3415 6.74425C35.2147 7.36995 35.2232 7.71662 35.4176 8.49451C35.722 9.69517 36.5422 11.1579 37.6668 12.477C37.9204 12.7814 38.1149 13.0773 38.098 13.128C38.0726 13.2041 37.7936 13.221 37.1002 13.1872C35.6713 13.128 33.9718 13.1365 32.9064 13.2126C31.9679 13.2887 31.9509 13.2802 31.9509 13.1027C31.9509 13.0097 32.1961 12.6376 32.4921 12.274C33.4475 11.1157 33.8788 10.3885 34.4114 9.06947C34.6567 8.4776 34.682 8.31695 34.6905 7.52214C34.6905 6.55823 34.589 6.21156 34.0817 5.47595C33.6927 4.90944 33.4729 4.42749 33.4729 4.14C33.4729 3.77642 33.7097 3.08309 34.0056 2.57576C34.5975 1.54421 35.0879 1.34128 35.5867 1.91625ZM13.1801 11.4285C13.8565 11.6991 14.2624 11.9697 14.4399 12.2656C14.5329 12.4093 14.6851 12.8913 14.7866 13.3394C14.888 13.796 15.0318 14.2695 15.1079 14.4133C15.5898 15.3687 17.0442 16.3242 18.6338 16.73C19.5385 16.9583 20.7307 17.1612 21.1704 17.1612C22.0075 17.1612 22.0075 17.398 21.1957 18.0491C20.3587 18.717 18.786 20.2813 18.2025 21.0253C17.729 21.6341 17.5261 21.7948 17.3993 21.6679C17.357 21.6257 17.2725 21.1014 17.1964 20.5011C16.9342 18.3365 16.3677 16.8315 15.4546 15.8507C14.8796 15.2419 14.3215 14.9121 13.5859 14.7599C12.2923 14.4809 12.1147 14.371 11.7004 13.5508C11.1085 12.3671 11.0916 11.437 11.6581 11.2087C11.8864 11.1157 12.715 11.234 13.1801 11.4285ZM58.5007 11.3101C58.9066 11.6399 58.729 12.7898 58.1118 13.8383C57.8412 14.3118 57.5622 14.4809 56.742 14.6669C55.516 14.9375 54.9241 15.2672 54.3407 15.9944C53.4698 17.0513 52.7511 19.3343 52.7511 21.0084C52.7511 21.5749 52.7342 21.6341 52.5651 21.6933C52.4129 21.7356 52.3283 21.6933 52.1169 21.4227C51.4574 20.5857 50.1299 19.2243 49.2083 18.4295C47.9907 17.3895 47.9062 17.1612 48.7602 17.1612C49.166 17.1612 50.7556 16.8822 51.5927 16.6624C53.2415 16.2312 54.5352 15.2842 54.9749 14.1765C55.1017 13.8637 55.2031 13.5085 55.2031 13.3986C55.2031 13.1027 55.5075 12.2656 55.6851 12.0711C55.8288 11.9105 57.0295 11.3017 57.3593 11.2171C57.7651 11.1157 58.3147 11.1579 58.5007 11.3101ZM36.5591 14.1596C37.4469 14.2272 38.3601 14.3202 38.5884 14.371C41.125 14.9121 42.5624 15.4025 44.4818 16.3664C45.099 16.6708 45.9023 17.119 46.2828 17.3642C47.8385 18.3619 49.741 20.053 51.0008 21.5834C51.7787 22.5219 52.0239 22.9278 51.9478 23.1645C51.8548 23.452 50.9247 24.3145 50.3329 24.6696C49.2252 25.3291 47.6441 25.7265 44.5494 26.1239C41.2265 26.5551 39.6369 26.9187 38.2079 27.5782C37.2186 28.0348 36.2124 28.8634 35.7981 29.5737C35.5698 29.9542 35.3415 30.0049 35.1302 29.7174C33.5659 27.6543 31.5282 26.8088 26.5818 26.1662C22.1596 25.5997 20.5531 25.067 19.3863 23.8156C18.8282 23.2153 18.5915 22.7756 18.5915 22.3444C18.5915 21.9639 18.972 21.4904 20.4432 20.0361C24.2481 16.2819 28.9831 14.2949 34.7412 14.0497C34.8596 14.0412 35.6798 14.0919 36.5591 14.1596ZM17.9404 23.6465C18.0165 23.731 18.2448 24.0101 18.4478 24.2637C18.6422 24.5174 19.0143 24.8894 19.2679 25.0924C19.919 25.6166 19.9359 25.6758 19.5808 26.2677C19.1749 26.9356 18.4816 28.5083 18.2195 29.3285C17.5684 31.3916 17.3739 32.6684 17.3739 34.9175C17.3739 36.7016 17.4331 37.2004 17.7967 38.8323C18.9551 43.9478 22.5148 48.4291 27.2498 50.729C28.3828 51.2786 28.628 51.38 29.9301 51.7859C31.5366 52.2932 33.0163 52.5046 34.9864 52.5046C36.2463 52.5046 36.6267 52.4708 38.0811 52.2509C40.7868 51.8366 43.6447 50.5514 45.9868 48.6912C46.7985 48.0486 48.3628 46.4675 48.9546 45.698C50.9839 43.0431 52.1 40.2951 52.5397 36.8707C52.8526 34.4693 52.5735 31.7975 51.7703 29.43C51.5335 28.7366 51.4828 28.5083 51.5504 28.3561C51.6012 28.2547 51.914 27.9503 52.2522 27.6797C52.582 27.4176 53.047 27.0286 53.2753 26.8257C53.7319 26.4198 53.8418 26.3945 54.0448 26.6059C54.2223 26.8088 54.8818 28.6521 55.1609 29.7174C55.6428 31.5607 55.7358 32.4147 55.7358 34.8329C55.7443 37.2596 55.6936 37.7416 55.1947 39.7962C54.5436 42.5273 53.2669 45.233 51.5843 47.4652C50.8656 48.4122 48.7771 50.5599 47.8893 51.2532C47.179 51.8028 45.953 52.6314 45.3104 52.995C44.9468 53.1979 44.7016 53.2656 44.1689 53.3079C42.8245 53.4178 42.1396 53.6122 39.4339 54.6776C36.5929 55.7937 36.0095 55.9375 34.5806 55.8614C33.4391 55.7937 33.1009 55.7007 30.6826 54.7453C27.7909 53.6038 27.0891 53.4009 25.8293 53.3163C25.1444 53.274 25.0345 53.2402 24.4764 52.9189C21.8553 51.3716 19.1665 48.835 17.636 46.459C14.9472 42.2567 13.7973 37.471 14.3215 32.55C14.4906 30.9519 14.8542 29.3792 15.3869 27.9672C15.4799 27.722 15.5898 27.426 15.6237 27.3077C15.8942 26.4537 17.2555 23.8579 17.5599 23.6042C17.7375 23.4689 17.7713 23.4774 17.9404 23.6465ZM53.1062 24.6442C53.2331 24.8725 53.343 25.1177 53.343 25.1769C53.343 25.3798 52.3283 26.3607 51.0938 27.3584C49.5888 28.576 48.7855 29.413 48.4135 30.1571C47.9146 31.1464 47.8132 31.6114 47.8132 32.8882C47.8216 34.1988 47.9823 35.0612 48.5234 36.7016C48.8955 37.8177 48.9377 38.1136 48.7179 38.1812C48.6333 38.2066 48.2867 38.3673 47.9485 38.5279C47.1452 38.9084 46.4265 39.5848 45.0567 41.259C43.9237 42.6372 43.1543 43.4236 42.5201 43.8463C41.9452 44.2353 41.2856 44.4889 40.9305 44.4551L40.6177 44.4297V43.3305C40.6177 41.9439 40.8798 39.8808 41.3787 37.3272C41.4886 36.7692 41.6408 35.9659 41.7169 35.5516C41.793 35.1289 41.9029 34.5201 41.9705 34.1988C42.0297 33.869 42.1312 33.1503 42.1819 32.5838C42.4863 29.4553 41.2011 28.9311 38.284 31.0111C37.4131 31.6283 37.2694 31.8735 37.5907 32.2287C37.819 32.4823 38.0811 32.4062 38.8167 31.8482C39.7045 31.1802 40.3133 30.7913 40.5331 30.7744C40.9982 30.7236 41.0743 30.7659 41.1757 31.1295C41.3026 31.6199 41.2265 32.3893 40.8121 34.6638C40.6261 35.7123 40.4401 36.7523 40.4063 36.989C40.364 37.2173 40.2372 37.9614 40.1188 38.6378C39.696 41.0814 39.417 43.9647 39.5269 44.7595C39.5946 45.2668 39.8567 45.5712 40.2456 45.5712C40.5162 45.5712 41.2856 45.3937 41.9198 45.1823C42.3257 45.047 42.5793 45.0893 42.6385 45.3006C42.6554 45.3767 42.7231 45.7319 42.7738 46.0785C42.8753 46.7803 43.0697 47.9641 43.1966 48.7251C43.2557 49.0633 43.2473 49.2747 43.1881 49.3846C43.0444 49.6636 40.736 50.6867 39.7806 50.9065C39.324 51.008 39.2986 50.9995 39.0957 50.8135C38.8759 50.6021 38.2671 48.8519 37.9458 47.4737C37.2947 44.6919 36.7028 40.2782 36.8804 39.5595C36.9142 39.4411 37.1679 39.179 37.4977 38.9338C38.0388 38.5279 39.1126 37.4456 39.3747 37.0567C39.6199 36.6677 39.2817 36.1942 38.8421 36.3042C38.7321 36.3295 38.4277 36.6085 38.1656 36.9298C36.7536 38.6125 35.4345 39.1367 34.1155 38.5279C33.4729 38.232 32.4329 37.192 31.7565 36.1604C31.4859 35.7461 31.1815 35.3825 31.08 35.3487C30.6826 35.205 30.3613 35.5009 30.4713 35.9152C30.5643 36.2872 31.3675 37.378 32.1454 38.1897C32.7288 38.7985 32.9149 39.0437 32.974 39.3143C33.1262 39.9991 32.8472 42.6879 32.416 44.751C32.3399 45.0893 32.23 45.6219 32.1623 45.9517C31.9256 47.0678 31.0378 50.247 30.8348 50.6782C30.7841 50.7966 30.6573 50.9065 30.5558 50.9319C30.1753 51.0249 28.0446 50.247 27.8839 49.9595C27.7909 49.7735 27.7825 49.782 28.3151 49.0802C29.0677 48.0909 29.4735 46.9494 29.761 45.0639C29.9132 44.0746 29.9301 43.6688 29.8878 42.0622C29.8625 41.0391 29.7864 39.5933 29.7187 38.8492C29.6511 38.1051 29.5496 37.0229 29.4904 36.4394C29.3551 34.9936 29.4312 32.5923 29.6257 31.8905C30.0147 30.5122 30.9617 30.5207 32.4498 31.8989C32.8726 32.2879 33.1093 32.4062 33.3545 32.347C33.5828 32.2879 33.7266 32.0173 33.6589 31.7636C33.6166 31.5945 32.6105 30.6983 32.0017 30.2755C31.0462 29.616 30.1584 29.4215 29.6088 29.7597C28.907 30.1825 28.5012 31.5438 28.4251 33.7168C28.3828 35.095 28.4927 37.5133 28.6534 38.6294C28.6956 38.9338 28.7971 39.8892 28.8732 40.7517C29 42.2144 29 42.4174 28.8732 43.9224C28.6703 46.1885 28.256 47.7611 27.8501 47.8372C27.5626 47.8964 27.5542 47.7273 27.774 46.4083C27.9685 45.233 27.9938 44.8948 27.9854 42.9923C27.9854 41.0899 27.9685 40.777 27.7825 39.8977C27.4442 38.2827 26.9454 37.4456 26.1844 37.2004C25.3473 36.9383 24.3919 37.8853 23.614 39.7539C23.4533 40.1429 23.2419 40.6164 23.1489 40.8193C22.9967 41.166 22.7853 41.3435 22.6754 41.2252C22.6162 41.166 22.7853 39.3734 22.9122 38.6801C22.9629 38.4434 22.9967 37.3272 22.9967 36.1858C22.9967 34.0297 22.8868 32.6007 22.557 30.6898C22.3203 29.32 22.2611 29.0748 22.1089 28.9311C21.9483 28.7704 21.4748 28.762 21.3733 28.9226C21.2634 29.1002 21.2803 29.7005 21.424 30.3347C21.4917 30.6475 21.6016 31.3155 21.6777 31.8313C22.1766 35.4248 22.0582 39.1113 21.331 42.4005C20.9928 43.9224 20.8322 43.914 20.0543 42.3582C18.9128 40.0499 18.3378 37.564 18.3378 34.9006C18.3378 32.2202 18.8959 29.8612 20.1135 27.4345L20.7476 26.1662L21.1281 26.1746C21.3395 26.1746 21.7792 26.2592 22.1005 26.3522C22.9122 26.5974 23.7746 26.7496 26.2436 27.0963C29.8202 27.6036 30.8517 27.8488 32.2046 28.5421C33.549 29.227 34.3861 30.1909 34.7835 31.5015C34.9526 32.068 35.0456 32.2371 35.2063 32.3132C35.5867 32.4908 35.7981 32.3048 36.0095 31.603C36.111 31.2648 36.3139 30.7659 36.4492 30.4953C36.8128 29.8104 37.709 28.9987 38.563 28.5675C40.1019 27.7896 41.2856 27.519 45.7754 26.9187C47.2382 26.7242 47.94 26.572 49.5381 26.107C49.927 25.9971 51.0854 25.4137 51.5166 25.1093C51.7111 24.9824 52.0155 24.7119 52.2015 24.5258C52.6327 24.0693 52.8103 24.0946 53.1062 24.6442ZM50.8148 29.5652C50.9924 30.0134 51.246 30.9942 51.4236 31.9158C51.6688 33.2095 51.6857 36.3972 51.449 37.6655C50.8909 40.6925 49.7833 43.1023 47.8216 45.5966C47.2044 46.3829 47.0184 46.5351 46.7816 46.4421C46.6632 46.3998 46.6463 46.2984 46.6971 45.7065C46.7224 45.326 46.7647 44.1253 46.7901 43.0346C46.8154 41.9439 46.8577 40.9292 46.8831 40.7855C46.9338 40.4557 47.4834 39.8892 48.1176 39.5087C48.405 39.3312 48.8532 39.1705 49.3182 39.069C49.7325 38.976 50.1046 38.8492 50.1384 38.79C50.2652 38.5956 50.2229 38.3673 49.8763 37.4541C48.8785 34.7822 48.6503 32.643 49.2083 31.1126C49.7156 29.7428 50.5612 28.9226 50.8148 29.5652ZM13.383 31.9412C13.4168 32.0257 13.3999 32.2794 13.3492 32.5162C13.197 33.2771 13.1462 35.5685 13.2646 36.5663C13.4253 37.9445 13.4253 37.9107 13.1632 37.9445C12.9856 37.9699 12.8334 37.8853 12.529 37.5978C11.5482 36.6931 9.92476 35.7123 8.92703 35.4333C7.60799 35.0528 6.73709 35.1289 5.78164 35.6954C5.46033 35.8898 4.97838 36.1604 4.71626 36.2957C4.27659 36.5155 4.20894 36.5324 3.87073 36.4394C3.28731 36.2872 2.34877 35.8053 2.0021 35.484C1.40177 34.9259 1.63852 34.351 2.68698 33.8267C2.9491 33.6914 3.38032 33.5223 3.65089 33.4462C4.25122 33.2687 4.48797 33.3279 5.35887 33.8606C6.47498 34.537 6.44116 34.5285 7.55726 34.5285C8.45353 34.5201 8.648 34.4947 9.20605 34.2833C10.2376 33.9028 11.5144 33.1165 12.4952 32.2625C13.0617 31.7721 13.3069 31.6791 13.383 31.9412ZM57.3508 32.1188C58.4331 33.0573 59.5999 33.8014 60.6907 34.241C61.1388 34.4271 61.5108 34.5032 62.0773 34.5454C63.1427 34.6215 63.5909 34.5116 64.4787 33.9451C65.5102 33.294 65.654 33.2602 66.3473 33.4716C66.9476 33.6492 67.7932 34.1142 68.1314 34.4524C68.7486 35.0612 68.013 35.7968 66.2458 36.3633L65.747 36.524L65.2988 36.3211C65.0536 36.2027 64.6731 35.9913 64.4618 35.8476C63.7177 35.3318 63.3541 35.2219 62.4747 35.2219C61.9505 35.2219 61.4939 35.2726 61.1642 35.3741C60.1411 35.6785 58.6868 36.5494 57.317 37.6824C57.0802 37.8768 56.8435 38.0206 56.7843 37.9952C56.7082 37.9699 56.6828 37.2342 56.6997 34.8921C56.7082 33.2095 56.7167 31.8228 56.7167 31.8059C56.7505 31.7044 57.038 31.8482 57.3508 32.1188ZM26.0914 38.2827C26.2689 38.4011 26.6241 39.272 26.8101 40.0837C26.9707 40.7855 26.9961 41.1237 26.9961 42.9078C26.9961 45.2499 26.8355 46.7719 26.3958 48.3784C26.2689 48.835 26.2436 48.8688 26.0068 48.8688C25.4995 48.8688 22.8107 46.6112 22.6923 46.087C22.6162 45.7403 22.9883 44.2014 23.5125 42.6541C24.1974 40.6587 24.9415 39.086 25.5164 38.4772C25.7616 38.2151 25.9054 38.1643 26.0914 38.2827ZM35.6882 39.8892C35.7981 39.9991 35.8489 40.2951 35.925 41.259C36.1363 44.1253 37.0411 48.4629 37.8359 50.4246C38.0642 50.9911 38.0895 51.194 37.9373 51.287C37.5568 51.5238 34.3607 51.6506 33.0755 51.49C31.934 51.3378 31.8918 51.3293 31.841 51.1433C31.8157 51.0418 31.9425 50.5007 32.12 49.9426C32.4836 48.7758 32.788 47.6597 33.0501 46.5436C33.1516 46.1208 33.2615 45.6304 33.3123 45.4444C33.6336 44.0662 33.8872 42.3835 33.9718 41.073C34.014 40.312 34.0817 39.8639 34.1578 39.7708C34.3184 39.5764 35.4684 39.6694 35.6882 39.8892ZM45.8177 42.967C45.8093 44.5312 45.6571 47.6005 45.5725 47.7527C45.4288 48.0233 44.5579 48.632 44.3634 48.5982C44.1436 48.5644 44.1013 48.4291 43.9153 47.1355C43.8392 46.5774 43.7462 45.9686 43.7039 45.7826C43.6616 45.5966 43.6024 45.2076 43.5686 44.9202L43.5179 44.3959L44.1774 43.6941C44.5494 43.3052 44.9722 42.8317 45.1328 42.6288C45.3188 42.3835 45.471 42.2736 45.6148 42.2736C45.8093 42.2736 45.8177 42.2905 45.8177 42.967ZM17.7037 48.1755C17.7544 48.2093 18.0842 48.5729 18.4393 48.9956C19.1834 49.8834 20.4263 51.101 21.2211 51.7267C21.534 51.9719 21.813 52.234 21.8468 52.3101C21.9314 52.5384 21.6608 52.6737 21.1366 52.6737C20.1642 52.6737 18.4562 53.0373 17.45 53.4601C16.4692 53.8659 15.4207 54.7537 15.1163 55.4217C15.0318 55.6077 14.8796 56.1404 14.7781 56.597C14.5245 57.6793 14.2962 57.9414 13.2646 58.3388C12.3937 58.6685 11.9963 58.7362 11.6581 58.5924C11.1508 58.3811 11.0831 57.8315 11.4552 56.8168C11.7257 56.0474 12.0217 55.5993 12.3684 55.3879C12.6136 55.2441 12.8249 55.1849 13.8058 54.9566C15.6152 54.5423 16.8243 52.5384 17.1541 49.3761C17.2809 48.1839 17.3908 47.9472 17.7037 48.1755ZM52.768 48.9787C52.8695 50.4415 53.2584 51.9465 53.7827 52.9443C54.1209 53.5869 54.8311 54.3563 55.3384 54.6353C55.7443 54.8552 55.8711 54.889 56.9872 55.1765C57.7059 55.3541 57.9342 55.5654 58.357 56.4702C58.7798 57.3749 58.8728 58.1359 58.6022 58.4064C58.2048 58.8038 57.4945 58.7277 56.4038 58.195C55.6259 57.8146 55.4399 57.5694 55.2454 56.7069C55.0002 55.5993 54.8734 55.3118 54.3745 54.7791C53.1908 53.4939 51.7365 52.9443 48.7517 52.6314C47.9823 52.5469 47.9992 52.3524 48.8194 51.7013C49.5212 51.1433 51.2291 49.4607 51.8379 48.7166C52.2184 48.2516 52.3875 48.1078 52.5313 48.1247C52.6919 48.1501 52.7173 48.2177 52.768 48.9787Z" fill="white"/>
<path d="M24.8061 19.0473C24.0029 19.3179 23.4448 19.766 23.0728 20.4763C22.8107 20.9667 22.7853 21.0681 22.7769 21.7699C22.7769 22.4379 22.8022 22.5901 23.0136 23.0129C23.3095 23.6132 24.0029 24.2558 24.5778 24.4587C25.212 24.687 26.1759 24.6617 26.734 24.408C29.0254 23.3595 29.0423 20.2649 26.7678 19.2249C26.159 18.9459 25.3388 18.8782 24.8061 19.0473ZM26.3027 20.1127C26.7931 20.3241 27.1821 20.7807 27.3512 21.3472C27.4611 21.753 27.4696 21.8799 27.3766 22.2434C27.0891 23.3595 25.8208 23.9937 24.8569 23.5117C24.4426 23.3004 23.9691 22.7592 23.8338 22.3618C23.3518 20.899 24.8822 19.5039 26.3027 20.1127Z" fill="white"/>
<path d="M43.1543 20.1544C42.647 20.3827 42.2411 20.7716 41.9959 21.2536C41.7084 21.7862 41.7338 22.8009 42.0382 23.3843C42.2665 23.824 42.6639 24.2045 43.1966 24.475C43.6278 24.6949 44.6593 24.678 45.1244 24.4412C46.232 23.8747 46.7478 22.6994 46.3758 21.5749C45.9446 20.2896 44.3634 19.5879 43.1543 20.1544ZM45.0229 21.3127C45.4034 21.6763 45.5218 22.1245 45.395 22.6656C45.1582 23.6464 43.9237 24.01 43.2135 23.3082C42.6808 22.7755 42.6723 21.9638 43.1881 21.3804C43.6954 20.8139 44.4733 20.7801 45.0229 21.3127Z" fill="white"/>
<path d="M34.5045 34.8416C34.0817 35.053 33.7857 35.4166 33.642 35.8986C33.456 36.5073 33.8365 37.2937 34.4622 37.615C34.5636 37.6657 34.8849 37.708 35.1724 37.708C35.815 37.708 36.1702 37.5135 36.4745 36.9978C36.965 36.1522 36.5084 35.0953 35.5106 34.7571C35.1048 34.6218 34.9188 34.6387 34.5045 34.8416ZM35.5614 35.9239C35.7389 36.1438 35.6544 36.5327 35.3923 36.7272C35.1724 36.8878 35.1386 36.8878 34.9272 36.7695C34.5636 36.5665 34.5636 35.9578 34.9272 35.7802C35.1555 35.6787 35.4176 35.7295 35.5614 35.9239Z" fill="white"/>
<path d="M25.9899 56.5631C25.026 56.7068 24.1636 57.0704 23.3518 57.6707C22.8783 58.0259 22.76 58.2373 22.9037 58.5078C23.0897 58.846 23.3687 58.8122 24.0452 58.3556C25.1021 57.6454 25.4572 57.5355 26.7932 57.5439C28.1037 57.5524 28.5096 57.6538 30.5981 58.4656C33.5236 59.6155 34.5467 59.8269 35.9249 59.5732C36.8381 59.4041 37.6752 59.1504 39.0111 58.6347C41.3617 57.7215 42.0297 57.5439 43.2811 57.5524C44.4987 57.5524 44.9299 57.6877 46.1052 58.474C46.5279 58.753 46.604 58.7784 46.7901 58.6938C47.4411 58.3979 46.9845 57.7468 45.6824 57.0873C44.8538 56.673 44.2704 56.5377 43.2811 56.5462C42.1396 56.5462 41.311 56.7576 39.1802 57.6031C37.3201 58.3303 36.9565 58.4571 36.111 58.6347C34.5805 58.9475 33.642 58.7615 30.3613 57.4509C28.4589 56.6984 27.0553 56.4109 25.9899 56.5631Z" fill="white"/>
<path d="M26.4803 59.7343C25.601 59.895 25.2374 60.0895 25.2036 60.4277C25.1867 60.6391 25.2205 60.7236 25.3811 60.8335C25.5672 60.9519 25.6179 60.9519 25.9138 60.842C26.7594 60.5038 28.1545 60.5291 29.3636 60.8927C29.6934 60.9857 30.6235 61.3155 31.4267 61.6114C33.4475 62.3555 34.1409 62.5077 35.2063 62.457C36.2209 62.4147 37.3116 62.1187 39.324 61.3493C40.7445 60.8082 41.404 60.6729 42.5201 60.6729C43.2896 60.6729 43.6785 60.7152 43.9406 60.8166C44.5071 61.0365 44.8876 60.8166 44.7693 60.3347C44.7101 60.081 44.1097 59.8189 43.2811 59.6836C42.1735 59.4976 41.0404 59.7343 38.5461 60.6813C36.4915 61.4592 36.3054 61.5015 34.9103 61.5015H33.6843L32.5851 61.1126C31.9848 60.9012 31.1054 60.5799 30.6404 60.4108C29.575 60.0134 28.8647 59.8189 28.0868 59.7005C27.3597 59.5906 27.2667 59.5906 26.4803 59.7343Z" fill="white"/>
<path d="M27.6133 62.3556C27.2667 62.6938 27.5034 62.9813 28.4081 63.2942C28.7548 63.4125 29.6849 63.7677 30.4713 64.089C32.3145 64.8246 33.1516 65.0867 34.1747 65.2389C34.9019 65.3488 35.0879 65.3488 35.8235 65.2304C36.8381 65.0698 37.9542 64.7316 39.324 64.1651C39.899 63.9283 40.7868 63.5817 41.2941 63.3956C42.3087 63.0321 42.5201 62.8968 42.5201 62.6008C42.5201 62.381 42.3003 62.2288 41.9705 62.2288C41.8521 62.2288 40.8713 62.5839 39.789 63.0236C38.7068 63.4548 37.5822 63.8945 37.2778 63.9875C36.6014 64.2073 35.4345 64.4272 34.9526 64.4272C34.014 64.4272 32.6781 64.0636 31.0208 63.3703C29.6173 62.7699 28.3828 62.3133 28.0361 62.2542C27.8332 62.2288 27.7148 62.2542 27.6133 62.3556Z" fill="white"/>
<path d="M35.5867 72.1804C32.1031 72.4256 28.9493 74.8607 27.8585 78.1668C26.2605 82.9694 28.9831 88.0342 33.9126 89.4124C36.4323 90.1226 39.3325 89.5899 41.4632 88.0172C42.5117 87.2394 42.7738 86.7489 42.3087 86.4446C42.0382 86.267 41.8606 86.3346 41.2856 86.8335C40.3217 87.6452 38.9689 88.3132 37.7513 88.5584C37.3793 88.6345 36.6859 88.6937 36.1448 88.6937C33.9971 88.6852 32.2046 87.9411 30.7165 86.4361C29.1522 84.8634 28.4842 83.1808 28.4842 80.8471C28.4842 79.4943 28.6533 78.7756 29.2875 77.4903C30.987 74.0321 34.8934 72.3664 38.5884 73.5332C39.324 73.7615 40.4993 74.421 41.1504 74.9622C41.497 75.2497 41.8521 75.5118 41.9367 75.5287C42.1988 75.5963 42.4778 75.3934 42.5032 75.1144C42.5286 74.8861 42.4609 74.7931 42.0804 74.4464C41.1081 73.5671 39.7299 72.823 38.4193 72.4763C37.7936 72.3072 36.39 72.1043 36.0941 72.1381C36.0264 72.1466 35.7981 72.1635 35.5867 72.1804Z" fill="white"/>
<path d="M66.1275 73.3213C62.6439 76.9064 59.7944 79.9334 59.6591 80.1786C59.5407 80.4069 59.5323 80.5168 59.5999 80.7113C59.6591 80.8719 60.5554 81.802 61.9505 83.1549C63.1935 84.3555 65.1805 86.3003 66.3727 87.4756C67.5649 88.6424 68.6218 89.6317 68.7232 89.6655C68.9431 89.7331 69.1376 89.5979 69.2475 89.3019C69.3743 88.9722 69.1291 88.617 68.0299 87.5432C67.4634 86.9936 66.1444 85.6999 65.0959 84.6768C64.0474 83.6538 62.6861 82.3263 62.0689 81.7344C61.4517 81.1341 60.9528 80.6014 60.9528 80.5506C60.9528 80.3393 61.3248 79.9334 64.504 76.602C66.2966 74.7334 67.827 73.093 67.9115 72.9577C68.0806 72.7041 68.0553 72.4673 67.8354 72.2475C67.5395 71.9515 67.3366 72.0784 66.1275 73.3213Z" fill="white"/>
<path d="M0.150365 72.3493C0.0489006 72.4592 0.0319899 73.9135 0.00662388 80.8977C-0.0102868 88.3468 -0.00183146 89.3361 0.116543 89.5137C0.294106 89.7758 0.606954 89.7673 0.826793 89.4883C1.00435 89.26 1.00435 89.2177 1.00435 82.4619C1.00435 76.3487 1.02127 75.6638 1.13964 75.6131C1.35948 75.5285 1.48631 75.7483 2.09509 77.2365C2.80534 78.9867 4.05674 82.0645 4.58097 83.3243C4.90227 84.1022 5.73935 86.1315 6.80472 88.7358C7.08375 89.4206 7.26977 89.6489 7.54879 89.6489C7.83628 89.6489 8.10685 89.4037 8.10685 89.1501C8.10685 89.0402 7.63335 87.8564 7.05838 86.5205C6.48342 85.1845 5.73935 83.4343 5.40114 82.6479C1.98518 74.6407 1.00435 72.4254 0.860614 72.307C0.657686 72.1633 0.28565 72.1802 0.150365 72.3493Z" fill="white"/>
<path d="M3.27884 72.366C2.98291 72.6027 3.0421 72.9494 3.6086 74.2769C3.88763 74.9279 4.42877 76.2216 4.80926 77.1517C5.19821 78.0818 5.85773 79.6798 6.28895 80.7029C6.72017 81.726 7.32896 83.1888 7.6418 83.9583C7.95465 84.7277 8.43661 85.903 8.71563 86.5794C9.00312 87.2558 9.34133 88.0675 9.47661 88.3973C9.98394 89.6402 10.2122 89.8854 10.6435 89.6656C10.8802 89.5388 11.0409 89.2344 11.4805 88.0422C11.6158 87.6786 11.8018 87.2136 11.9033 87.0022C12.064 86.6471 14.1186 81.4977 14.8204 79.646C14.9895 79.2063 15.2432 78.5722 15.3784 78.2509C15.5053 77.9211 15.6828 77.4645 15.7674 77.2362C15.8519 76.9995 15.9534 76.7627 15.9957 76.7036C16.1141 76.5514 16.3931 76.5767 16.4015 76.7458C16.4015 76.8304 16.4015 79.646 16.3931 82.9943C16.3846 89.5472 16.3846 89.6149 16.8074 89.7502C17.0103 89.8094 17.2894 89.6825 17.4077 89.4542C17.4669 89.3528 17.4923 86.4779 17.4923 80.9566V72.6196L17.2809 72.4167C16.8243 71.9517 16.5791 72.2138 15.9111 73.8964C15.6237 74.6151 14.9726 76.2723 14.4653 77.5745C13.9495 78.8766 13.2139 80.7621 12.8165 81.7599C12.0386 83.713 11.1085 86.1144 10.8633 86.7739C10.5927 87.4926 10.3221 87.611 10.1108 87.1036C10.0347 86.9345 9.6119 85.9114 9.16377 84.8461C8.71563 83.7722 8.15758 82.4532 7.92083 81.9036C7.69254 81.3455 7.33741 80.4916 7.14294 80.0011C6.94001 79.5023 6.61871 78.7244 6.42423 78.2763C6.06911 77.4392 5.47724 76.0102 4.60633 73.8541C4.27658 73.0509 4.03983 72.5943 3.87072 72.4336C3.57478 72.163 3.53251 72.1546 3.27884 72.366Z" fill="white"/>
<path d="M54.5182 72.3666L54.3153 72.5272L54.2899 80.7458C54.2815 86.3602 54.2984 89.0659 54.3576 89.2942C54.5098 89.8438 55.0256 89.9199 55.3046 89.4295C55.3891 89.2857 55.423 87.5439 55.4399 81.3377C55.4568 76.9917 55.4399 73.229 55.4145 72.9838C55.33 72.2736 54.9495 72.0199 54.5182 72.3666Z" fill="white"/>
<path d="M57.0548 72.366L56.8519 72.5267L56.8266 80.8636C56.8096 88.1522 56.8266 89.2344 56.9365 89.4543C57.1817 89.9278 57.6636 89.8517 57.8243 89.3021C57.8919 89.0822 57.9088 86.4864 57.8919 80.7706C57.8666 73.592 57.8497 72.5351 57.7397 72.4252C57.5114 72.2138 57.2662 72.1885 57.0548 72.366Z" fill="white"/>
<path d="M0.260297 94.7476C0.141923 94.8322 0.0742798 94.9674 0.0742798 95.1196C0.0742798 95.2718 0.141923 95.4071 0.260297 95.4917C0.429404 95.61 3.87073 95.627 35.0202 95.627H69.5857L69.7886 95.4156C69.907 95.3056 70 95.1704 70 95.1196C70 95.0689 69.907 94.9336 69.7886 94.8237L69.5857 94.6123H35.0202C3.87073 94.6123 0.429404 94.6292 0.260297 94.7476Z" fill="white"/>
</svg>
